<svg width="91" height="126" viewBox="0 0 91 126" fill="none" xmlns="http://www.w3.org/2000/svg">
<path d="M45.4205 125.959C45.1374 125.271 39.2573 119.521 35.0465 114.296C10.0993 81.1736 -17.7149 50.3981 14.7634 12.9981C29.1441 -0.895596 46.8765 -1.68818 65.106 4.78794C116.436 34.4898 79.2724 82.9431 54.8705 114.796L45.4205 125.959V125.959ZM60.8609 75.1873C95.0976 50.7027 68.6289 3.55442 31.0129 19.2283C20.0286 25.0851 14.5784 35.2758 14.3875 47.2959C13.863 58.9891 20.073 68.7669 29.9138 74.7567C36.9692 78.5968 40.0709 79.2904 48.0595 78.8144C53.2371 78.5058 56.2206 77.6605 60.8609 75.1873Z" fill="#235769" fill-opacity="0.988235"/>
<path d="M35.6074 86.8769C23.9864 84.4579 13.8175 77.6489 7.32065 67.9362C0.823785 58.2235 -1.47343 46.396 0.930486 35.0356C3.3344 23.6752 10.2442 13.7046 20.1515 7.30027C30.0588 0.895991 42.159 -1.42182 53.8105 0.852817C65.4621 3.12745 75.7188 9.8098 82.3415 19.4411C88.9643 29.0724 91.4153 40.8705 89.1594 52.2598C86.9036 63.6491 80.1241 73.7046 70.301 80.2313C60.4779 86.758 48.4089 89.2257 36.7286 87.0958" fill="#235769" fill-opacity="0.988235"/>
<path d="M38.5498 80.6967C29.9155 78.7992 22.3601 73.458 17.533 65.8392C12.7059 58.2204 10.9991 48.9427 12.7852 40.0314C14.5712 31.1201 19.7052 23.2989 27.0662 18.2753C34.4272 13.2516 43.4175 11.4335 52.0745 13.2178C60.7316 15.002 68.3522 20.2438 73.2728 27.7988C78.1935 35.3538 80.0146 44.6084 78.3385 53.5423C76.6624 62.4763 71.6253 70.3641 64.3268 75.4837C57.0283 80.6034 48.0612 82.5391 39.3829 80.8684" fill="#1E4C5C"/>
<path d="M40.46 68.7399C34.7499 67.4957 29.7533 63.9937 26.561 58.9982C23.3688 54.0028 22.24 47.9196 23.4212 42.0767C24.6023 36.2338 27.9975 31.1056 32.8655 27.8117C37.7336 24.5179 43.6791 23.3257 49.4042 24.4956C55.1293 25.6655 60.169 29.1024 63.4231 34.056C66.6773 39.0096 67.8816 45.0776 66.7732 50.9354C65.6647 56.7932 62.3336 61.965 57.5069 65.3218C52.6803 68.6787 46.7501 69.9479 41.0109 68.8525" fill="white"/>
</svg>
